<?xml version="1.0" encoding="utf-8"?>
<!-- Generator: Adobe Illustrator 23.0.4, SVG Export Plug-In . SVG Version: 6.00 Build 0)  -->
<svg version="1.1" id="Layer_1" xmlns="http://www.w3.org/2000/svg" xmlns:xlink="http://www.w3.org/1999/xlink" x="0px" y="0px"
	 viewBox="0 0 742 720" style="enable-background:new 0 0 742 720;" xml:space="preserve">
<style type="text/css">
	.st0{font-family:'ArialMT';}
	.st1{font-size:12px;}
	.st2{fill:none;stroke:#000000;}
	.st3{fill:#8224E3;}
	.st4{fill:#EEEE22;}
	.st5{fill:#DD3333;}
	.st6{fill:#DD9933;}
</style>
<g transform="translate(71,60)">
	<g>
		<text transform="matrix(1 0 0 1 289.9922 -30)" class="st0 st1">butt</text>
		<text transform="matrix(6.123234e-17 -1 1 6.123234e-17 671 311.3438)" class="st0 st1">hole</text>
	</g>
	<g>
		<g transform="translate(0,0)">
			<path class="st2" d="M600.5-6v6.5H0.5V-6"/>
			<g transform="translate(600.5,0)">
				<line class="st2" x1="0" y1="0" x2="0" y2="-6"/>
				<text transform="matrix(1 0 0 1 -3.3369 -9)" class="st0 st1">9</text>
			</g>
			<g transform="translate(540.5,0)">
				<line class="st2" x1="0" y1="0" x2="0" y2="-6"/>
				<text transform="matrix(1 0 0 1 -6.6738 -9)" class="st0 st1">10</text>
			</g>
			<g transform="translate(480.5,0)">
				<line class="st2" x1="0" y1="0" x2="0" y2="-6"/>
				<text transform="matrix(1 0 0 1 -6.2285 -9)" class="st0 st1">11</text>
			</g>
			<g transform="translate(420.5,0)">
				<line class="st2" x1="0" y1="0" x2="0" y2="-6"/>
				<text transform="matrix(1 0 0 1 -6.6738 -9)" class="st0 st1">12</text>
			</g>
			<g transform="translate(360.5,0)">
				<line class="st2" x1="0" y1="0" x2="0" y2="-6"/>
				<text transform="matrix(1 0 0 1 -6.6738 -9)" class="st0 st1">13</text>
			</g>
			<g transform="translate(300.5,0)">
				<line class="st2" x1="0" y1="0" x2="0" y2="-6"/>
				<text transform="matrix(1 0 0 1 -6.6738 -9)" class="st0 st1">14</text>
			</g>
			<g transform="translate(240.5,0)">
				<line class="st2" x1="0" y1="0" x2="0" y2="-6"/>
				<text transform="matrix(1 0 0 1 -6.6738 -9)" class="st0 st1">15</text>
			</g>
			<g transform="translate(180.5,0)">
				<line class="st2" x1="0" y1="0" x2="0" y2="-6"/>
				<text transform="matrix(1 0 0 1 -6.6738 -9)" class="st0 st1">16</text>
			</g>
			<g transform="translate(120.5,0)">
				<line class="st2" x1="0" y1="0" x2="0" y2="-6"/>
				<text transform="matrix(1 0 0 1 -6.6738 -9)" class="st0 st1">17</text>
			</g>
			<g transform="translate(60.5,0)">
				<line class="st2" x1="0" y1="0" x2="0" y2="-6"/>
				<text transform="matrix(1 0 0 1 -6.6738 -9)" class="st0 st1">18</text>
			</g>
			<g transform="translate(0.5,0)">
				<line class="st2" x1="0" y1="0" x2="0" y2="-6"/>
				<text transform="matrix(1 0 0 1 -6.6738 -9)" class="st0 st1">19</text>
			</g>
		</g>
		<g transform="translate(600,0)">
			<path class="st2" d="M6,0.5H0.5v600H6"/>
			<g transform="translate(0,46.47887323943663)">
				<line class="st2" x1="0" y1="0" x2="6" y2="0"/>
				<text transform="matrix(1 0 0 1 9 3.84)" class="st0 st1">Tony</text>
			</g>
			<g transform="translate(0,130.98591549295776)">
				<line class="st2" x1="0" y1="0" x2="6" y2="0"/>
				<text transform="matrix(1 0 0 1 9 3.84)" class="st0 st1">Jessica</text>
			</g>
			<g transform="translate(0,215.49295774647888)">
				<line class="st2" x1="0" y1="0" x2="6" y2="0"/>
				<text transform="matrix(1 0 0 1 9 3.84)" class="st0 st1">Andrew</text>
			</g>
			<g transform="translate(0,300)">
				<line class="st2" x1="0" y1="0" x2="6" y2="0"/>
				<text transform="matrix(1 0 0 1 9 3.84)" class="st0 st1">Emily</text>
			</g>
			<g transform="translate(0,384.5070422535211)">
				<line class="st2" x1="0" y1="0" x2="6" y2="0"/>
				<text transform="matrix(1 0 0 1 9 3.84)" class="st0 st1">Richard</text>
			</g>
			<g transform="translate(0,469.01408450704224)">
				<line class="st2" x1="0" y1="0" x2="6" y2="0"/>
				<text transform="matrix(1 0 0 1 9 3.84)" class="st0 st1">Tonyboy</text>
			</g>
			<g transform="translate(0,553.5211267605633)">
				<line class="st2" x1="0" y1="0" x2="6" y2="0"/>
				<text transform="matrix(1 0 0 1 9 3.84)" class="st0 st1">mop</text>
			</g>
		</g>
	</g>
	<g>
		<g>
			<rect x="360" y="8.5" class="st3" width="240" height="76.1"/>
		</g>
		<g>
			<rect x="420" y="93" class="st4" width="180" height="76.1"/>
		</g>
		<g>
			<rect x="600" y="177.5" class="st5" width="0" height="76.1"/>
		</g>
		<g>
			<rect x="480" y="262" class="st5" width="120" height="76.1"/>
		</g>
		<g>
			<rect y="346.5" class="st6" width="600" height="76.1"/>
		</g>
		<g>
			<rect x="300" y="431" class="st6" width="300" height="76.1"/>
		</g>
		<g>
			<rect x="540" y="515.5" class="st4" width="60" height="76.1"/>
		</g>
	</g>
	<g transform="translate(0,528.5409393310547)">
		<g transform="translate(0, 0)">
			<rect y="0" class="st3" width="12" height="12"/>
			<text transform="matrix(1 0 0 1 24 15)" class="st0 st1">thot</text>
		</g>
		<g transform="translate(0, 20.101661682128906)">
			<rect y="0" class="st4" width="12" height="12"/>
			<text transform="matrix(1 0 0 1 24 15)" class="st0 st1">fuckhole</text>
		</g>
		<g transform="translate(0, 40.20332336425781)">
			<rect y="0" class="st5" width="12" height="12"/>
			<text transform="matrix(1 0 0 1 24 15)" class="st0 st1">bitch</text>
		</g>
		<g transform="translate(0, 60.30498504638672)">
			<rect y="0" class="st6" width="12" height="12"/>
			<text transform="matrix(1 0 0 1 24 15)" class="st0 st1">dumbass</text>
		</g>
	</g>
</g>
</svg>
